<?xml version="1.0" standalone="no"?>
<!DOCTYPE svg PUBLIC "-//W3C//DTD SVG 20010904//EN"
 "http://www.w3.org/TR/2001/REC-SVG-20010904/DTD/svg10.dtd">
<svg version="1.0" xmlns="http://www.w3.org/2000/svg"
 width="759.000000pt" height="686.000000pt" viewBox="0 0 759.000000 686.000000"
 preserveAspectRatio="xMidYMid meet">

<g transform="translate(0.000000,686.000000) scale(0.100000,-0.100000)"
fill="#000000" stroke="none">
<path d="M3655 6595 c-33 -7 -73 -18 -90 -23 -16 -6 -59 -16 -94 -22 -74 -13
-106 -36 -240 -170 -72 -72 -91 -99 -128 -178 -24 -51 -43 -100 -43 -108 0 -8
-11 -36 -24 -62 -60 -118 -80 -256 -66 -447 5 -65 4 -111 -1 -113 -5 -2 -9
-10 -9 -18 0 -7 6 -11 13 -8 16 6 61 -82 47 -91 -15 -9 -12 -61 5 -75 21 -17
22 -9 29 160 4 104 12 170 29 235 19 76 22 105 17 185 -3 52 -2 112 2 133 16
74 139 237 179 237 10 0 19 6 21 13 5 14 33 18 158 17 117 0 151 -3 168 -14 7
-4 19 -3 26 3 7 6 30 10 52 10 21 -1 57 2 79 6 30 5 52 2 88 -14 27 -12 59
-21 72 -21 13 0 44 -15 68 -34 25 -19 58 -41 74 -49 40 -22 89 -76 107 -119
20 -46 22 -157 4 -154 -7 2 -26 6 -41 11 -34 9 -44 1 -27 -21 9 -10 10 -18 3
-22 -21 -14 -22 -53 -2 -73 26 -26 25 -43 -3 -34 -36 13 -198 12 -256 -1 -29
-6 -60 -19 -70 -27 -31 -28 -112 -56 -166 -58 -42 -2 -57 2 -74 19 -37 37 -66
50 -127 58 -99 13 -153 7 -187 -21 -27 -23 -28 -25 -8 -25 12 0 19 -4 16 -8
-3 -5 14 -9 37 -9 23 0 57 -8 76 -18 l35 -17 -25 -14 c-13 -7 -38 -13 -55 -14
-43 0 -99 -25 -118 -52 -17 -23 -22 -67 -8 -69 4 -1 23 -2 42 -4 19 -2 36 -8
38 -13 2 -6 9 -9 17 -6 7 3 16 1 19 -5 4 -6 -5 -13 -19 -17 -14 -3 -25 -10
-25 -15 0 -15 68 -27 104 -19 49 11 136 63 114 68 -10 2 -18 11 -18 20 0 13 2
14 8 4 11 -17 42 -4 35 14 -6 17 37 20 54 3 8 -8 13 -5 18 10 8 27 52 61 80
61 28 0 63 -38 76 -83 5 -20 17 -43 25 -52 17 -17 44 -20 44 -5 0 6 -4 10 -9
10 -17 0 -24 42 -10 51 22 14 42 11 35 -6 -4 -12 3 -15 35 -15 22 0 38 4 34 9
-3 5 0 13 6 16 6 4 13 -2 16 -14 3 -14 13 -21 29 -21 13 0 24 -3 24 -7 0 -5
-33 -7 -72 -5 l-73 3 25 -20 c100 -80 205 -82 314 -7 49 33 63 23 69 -51 4
-43 1 -58 -19 -87 -13 -19 -34 -36 -46 -38 -16 -2 -24 -11 -26 -28 -2 -14 -8
-29 -13 -35 -5 -5 -9 -16 -9 -25 0 -9 -9 -26 -20 -38 -11 -12 -20 -24 -20 -28
0 -14 -64 -65 -77 -60 -7 3 -13 1 -13 -3 0 -5 6 -11 13 -14 9 -3 9 -7 -1 -20
-8 -9 -11 -25 -7 -37 4 -11 2 -20 -4 -20 -6 0 -11 5 -11 11 0 6 -6 9 -14 6 -7
-3 -18 -1 -23 4 -9 9 -28 11 -90 8 -13 0 -23 -7 -23 -15 0 -14 -20 -13 -75 6
-37 12 -207 2 -252 -15 -47 -18 -112 -14 -114 8 0 7 -5 2 -11 -10 -6 -13 -15
-23 -20 -23 -5 0 -7 -4 -4 -9 10 -16 -5 -41 -25 -41 -23 0 -26 -35 -4 -44 8
-3 15 -1 15 4 0 6 6 10 13 10 8 0 28 7 46 16 17 9 38 13 46 10 8 -3 33 1 56 9
43 16 208 20 242 6 16 -6 17 -9 5 -19 -15 -12 -156 -35 -186 -30 -9 1 -27 -7
-39 -19 l-22 -22 22 -16 c38 -27 120 -46 181 -41 36 2 67 -1 84 -10 14 -7 29
-11 34 -8 5 3 7 2 6 -3 -2 -4 4 -23 11 -42 13 -31 13 -35 -4 -47 -10 -8 -27
-14 -36 -14 -10 0 -31 -8 -49 -18 -30 -16 -31 -16 -41 1 -10 17 -12 17 -29 2
-24 -21 -95 -31 -114 -16 -7 6 -20 9 -28 6 -8 -3 -26 -1 -41 4 -21 8 -28 7
-35 -5 -8 -14 -13 -14 -33 -4 -53 28 -96 99 -69 115 13 8 2 75 -14 90 -14 12
-53 35 -61 35 -2 0 0 -11 5 -25 12 -31 4 -32 -28 -2 l-25 22 18 -27 c17 -28
17 -28 -13 -45 -17 -10 -33 -26 -35 -35 -13 -48 40 -157 126 -261 50 -60 87
-115 87 -128 0 -6 15 -28 33 -49 18 -22 40 -52 47 -67 23 -43 92 -113 127
-128 19 -8 56 -12 95 -10 63 4 63 4 13 -5 -172 -29 -351 13 -440 104 -25 26
-45 52 -46 59 0 7 -2 21 -4 32 -18 90 -21 113 -14 130 4 11 8 36 8 55 1 42
-52 243 -65 247 -5 1 -26 -32 -46 -75 -33 -68 -38 -88 -38 -149 0 -44 -5 -74
-12 -81 -32 -25 -420 -169 -628 -233 -168 -52 -274 -99 -345 -152 -51 -39
-157 -186 -211 -294 -61 -121 -123 -284 -151 -397 -14 -55 -43 -138 -65 -185
-57 -124 -91 -229 -85 -267 5 -31 -21 -229 -63 -479 -15 -89 -12 -132 12 -213
l21 -73 -16 -252 c-23 -353 -11 -486 64 -686 70 -187 100 -207 285 -197 68 3
125 2 128 -2 3 -5 -8 -53 -24 -106 -34 -113 -60 -241 -60 -297 0 -22 -15 -72
-35 -118 -19 -43 -35 -88 -35 -98 0 -10 -12 -45 -26 -78 -14 -33 -32 -78 -40
-100 -8 -22 -23 -58 -33 -80 -10 -22 -22 -50 -25 -62 l-7 -23 1961 0 1962 0
-6 238 c-4 130 -12 377 -19 547 -15 399 -15 550 2 710 9 91 11 183 7 310 -5
120 -3 204 4 253 12 77 7 99 -14 69 -18 -23 -29 -22 -21 3 5 15 2 20 -13 20
-16 0 -42 35 -42 57 0 3 18 3 40 0 36 -5 40 -3 40 17 0 12 -6 31 -14 41 -12
17 -16 18 -32 5 -14 -12 -16 -12 -13 -1 3 7 -8 27 -23 43 -36 39 -35 49 2 41
l30 -6 0 75 c0 40 -7 99 -15 131 -9 35 -14 94 -13 159 2 86 -1 114 -21 168
-15 42 -24 93 -26 145 -4 93 -62 369 -105 500 -59 176 -174 361 -253 405 -23
13 -56 34 -72 46 -17 13 -78 41 -135 64 -58 22 -136 54 -175 71 -38 17 -111
46 -162 65 -101 37 -251 124 -298 174 -27 28 -30 38 -30 93 0 34 4 96 9 137
13 114 15 247 3 322 -10 65 -9 70 21 135 41 90 66 244 59 367 -3 50 -8 154
-12 231 -6 153 -17 245 -42 345 -17 71 -62 169 -87 189 -11 9 -16 30 -16 67 0
49 -4 57 -44 103 -24 27 -47 59 -51 70 -3 11 -23 30 -43 42 -20 12 -65 46
-100 76 -96 80 -183 98 -327 68z m-285 -1015 c-8 -5 -28 -10 -43 -10 -16 0
-37 -5 -48 -10 -10 -6 -19 -8 -19 -5 0 11 65 34 95 34 23 1 26 -2 15 -9z m625
0 c-3 -5 -19 -10 -36 -10 -16 0 -29 5 -29 10 0 6 16 10 36 10 21 0 33 -4 29
-10z m-580 -110 c-11 -5 -31 -9 -45 -9 -23 0 -23 1 -5 9 11 5 31 9 45 9 23 0
23 -1 5 -9z m501 -666 c-35 -26 -47 -13 -25 28 10 19 12 19 27 4 16 -16 16
-18 -2 -32z m-626 -44 c0 -5 -4 -10 -10 -10 -5 0 -10 5 -10 10 0 6 5 10 10 10
6 0 10 -4 10 -10z m527 -676 c-3 -3 -12 -4 -19 -1 -8 3 -5 6 6 6 11 1 17 -2
13 -5z m-100 -80 c-3 -3 -12 -4 -19 -1 -8 3 -5 6 6 6 11 1 17 -2 13 -5z m-8
-19 c8 -9 -73 -93 -85 -88 -8 3 -14 9 -14 14 0 12 -42 55 -62 62 -41 15 -12
23 70 19 48 -2 89 -5 91 -7z m1175 -1259 c-12 -37 -56 -129 -68 -141 -6 -7
-29 -33 -51 -60 -22 -26 -48 -56 -58 -67 -10 -11 -17 -21 -15 -23 10 -10 126
23 232 65 l121 49 137 2 c153 3 168 -2 168 -57 0 -31 -2 -33 -52 -43 -95 -18
-171 -25 -164 -13 10 16 -11 25 -31 13 -10 -6 -12 -11 -5 -11 17 0 15 -20 -2
-20 -8 0 -36 -11 -62 -25 -26 -14 -55 -25 -65 -25 -10 0 -20 -4 -24 -9 -3 -5
-31 -17 -62 -26 -41 -12 -53 -19 -42 -26 29 -18 90 -8 228 41 l142 50 102 -6
c135 -7 175 -13 157 -24 -12 -7 -11 -10 3 -16 24 -9 21 -27 -3 -19 -15 5 -20
2 -20 -13 0 -16 -13 -23 -67 -38 -38 -9 -76 -21 -86 -26 -16 -8 -18 -7 -13 10
4 11 3 23 -1 25 -14 9 -44 -20 -41 -38 2 -15 -18 -22 -127 -46 -129 -29 -179
-48 -202 -77 -37 -46 -2 -41 180 27 128 47 136 49 269 54 128 6 138 5 148 -13
12 -22 13 -41 2 -23 -10 15 -23 5 -43 -32 -11 -22 -22 -29 -39 -27 -12 1 -28
-4 -34 -12 -14 -17 -56 -28 -56 -14 0 6 -10 8 -22 5 -12 -3 -30 -1 -41 5 -16
8 -23 7 -31 -4 -13 -17 -68 -40 -87 -37 -8 2 -24 -1 -37 -5 -15 -5 -29 -3 -39
6 -10 8 -14 8 -10 1 4 -7 -1 -14 -13 -18 -12 -4 -17 -11 -13 -18 4 -7 -1 -6
-11 2 -15 13 -18 12 -23 -7 -3 -12 -12 -22 -19 -22 -22 0 -26 -1 -76 -21 -25
-10 -70 -21 -98 -25 -50 -7 -52 -6 -45 15 9 28 -8 27 -87 -4 -56 -21 -72 -23
-138 -17 -60 6 -75 10 -78 25 -3 13 4 17 31 17 24 0 37 -6 42 -17 6 -14 10
-10 16 19 10 44 -6 102 -21 78 -5 -8 -7 -17 -4 -21 2 -4 -8 -4 -23 0 -33 9
-53 4 -53 -13 0 -7 -7 -13 -15 -13 -13 0 -13 2 0 17 8 9 15 22 15 28 0 7 7 12
15 12 8 0 15 7 15 15 0 8 5 15 11 15 12 0 38 29 39 42 0 4 -14 15 -31 24 -29
15 -32 14 -53 -5 -29 -27 -36 -26 -36 5 0 14 -4 23 -10 19 -17 -11 -11 9 15
47 14 20 25 46 25 57 0 11 9 23 21 26 14 5 17 10 10 14 -17 11 118 127 159
136 19 5 30 10 23 12 -8 3 -9 13 -3 33 4 16 5 31 2 35 -8 7 34 45 71 65 16 8
34 28 42 45 7 16 27 50 45 73 30 42 32 43 51 26 13 -12 17 -24 13 -38z m578
-217 c26 -14 32 -48 12 -70 -20 -23 -36 -25 -28 -4 4 9 0 15 -9 15 -19 0 -47
37 -47 62 0 15 5 17 28 12 15 -4 35 -11 44 -15z m-2822 -164 c14 -8 35 -14 48
-15 12 0 22 -4 22 -10 0 -5 10 -10 23 -11 13 0 16 -2 7 -6 -42 -14 -43 -17 -5
-24 22 -4 62 -8 89 -8 34 -1 47 -5 43 -13 -3 -7 -26 -60 -51 -117 -25 -56 -60
-149 -77 -205 -17 -55 -34 -105 -38 -109 -4 -4 -14 -1 -21 8 -7 8 -19 15 -26
15 -8 0 -19 11 -25 24 -6 13 -25 28 -43 33 -20 6 -31 15 -30 26 2 13 -3 16
-18 11 -16 -5 -19 -2 -14 13 4 13 -1 21 -16 28 -12 6 -25 20 -28 33 -3 13 -8
23 -12 23 -30 -3 -38 2 -44 23 -3 14 -12 27 -20 30 -21 8 -17 30 21 109 19 39
35 80 35 89 0 9 10 24 22 32 12 9 18 16 13 16 -6 0 -3 5 5 10 22 14 111 11
140 -5z m2919 -299 c22 -27 9 -48 -32 -52 -32 -3 -40 1 -49 20 -10 22 -11 23
-29 8 -11 -9 -19 -22 -19 -29 0 -7 -9 -13 -21 -13 -12 0 -23 -8 -26 -19 -11
-42 -145 -63 -165 -27 -7 13 -13 14 -23 6 -8 -7 -24 -9 -36 -5 -18 6 -28 2
-43 -18 -15 -18 -32 -26 -61 -27 -64 -4 -115 -1 -115 8 0 8 112 67 193 101 27
12 70 21 95 21 26 0 63 5 82 11 34 10 110 21 196 27 27 2 45 -3 53 -12z
m-3844 -886 c-3 -5 -12 -10 -18 -10 -7 0 -6 4 3 10 19 12 23 12 15 0z"/>
<path d="M4608 2377 c-7 -8 -20 -16 -28 -20 -9 -3 -10 -6 -3 -6 9 -1 7 -12 -7
-36 -10 -19 -15 -37 -11 -39 11 -7 60 63 66 92 5 26 1 27 -17 9z"/>
<path d="M4530 2245 c-9 -10 -9 -15 -1 -15 6 0 11 5 11 11 0 5 5 7 10 4 6 -3
10 -1 10 4 0 16 -16 13 -30 -4z"/>
<path d="M4825 2163 c-11 -3 -30 -17 -43 -30 -18 -20 -30 -24 -57 -21 -19 2
-35 0 -35 -4 0 -4 -12 -8 -27 -8 -14 0 -23 -3 -20 -7 4 -3 -3 -17 -15 -30 -21
-22 -21 -23 -2 -23 11 0 25 -5 31 -11 7 -7 19 -8 30 -4 10 4 34 9 54 10 35 3
95 29 134 59 18 14 18 15 3 16 -22 0 -23 8 -1 32 9 10 11 18 5 18 -6 0 -16 2
-24 4 -7 2 -22 1 -33 -1z"/>
<path d="M3725 5230 c-45 -23 -127 -35 -152 -22 -14 8 -27 6 -50 -9 -27 -17
-30 -23 -24 -52 6 -30 10 -32 51 -35 25 -2 59 -9 75 -17 58 -27 208 -17 225
14 5 10 6 36 3 59 -5 36 -9 42 -29 42 -13 0 -33 9 -43 19 -19 19 -20 19 -56 1z"/>
</g>
</svg>
